<svg xmlns="http://www.w3.org/2000/svg" width="40" height="40" viewBox="0 0 40 40">
    <g fill="none" fill-rule="evenodd" stroke="#FFF" stroke-width="4.8">
        <path d="M37.574 19.032C37.07 9.762 29.395 2.4 20 2.4 10.28 2.4 2.4 10.28 2.4 20c0 9.395 7.362 17.071 16.632 17.574l18.542-18.542z"/>
        <path d="M19.046 8.84C13.306 9.324 8.8 14.136 8.8 20c0 6.186 5.014 11.2 11.2 11.2 5.864 0 10.676-4.507 11.16-10.246L19.046 8.84z"/>
        <path d="M15.286 20.908A4.802 4.802 0 0 0 24.8 20c0-2.34-1.675-4.29-3.892-4.714l-5.622 5.622z"/>
    </g>
</svg>
